<svg width="218" height="141" viewBox="0 0 218 141" fill="none" xmlns="http://www.w3.org/2000/svg">
<path d="M17.6621 35.5723C18.6982 37.101 19.7734 38.8692 20.9304 40.4504C18.5543 37.5274 15.4168 40.0829 15.4495 43.1994C15.4887 47.0113 19.1949 47.6182 22.0776 47.8708C25.6727 48.1989 28.9181 47.7199 31.3464 44.6199C33.3597 42.0512 34.52 39.7844 32.3694 37.0747C30.2189 34.365 27.3657 31.2191 24.7968 29.1523" stroke="#333333" stroke-width="2" stroke-linecap="round" stroke-linejoin="round"/>
<path d="M8.34908 51.8107C6.18547 49.2651 4.27352 46.5619 3.25381 43.0748C2.14586 39.3055 1.78635 37.1043 1.97918 33.1054C2.32562 25.8883 10.0126 22.5914 14.9184 18.0446C17.4807 15.6696 20.3895 13.78 23.1643 11.7199C25.1252 10.2699 28.8021 7.78328 31.1258 7.78328C34.502 7.7636 36.7146 11.6083 38.6429 13.8522C41.081 16.6964 43.1531 19.101 45.2612 22.1846C46.7581 24.3826 49.0393 27.2464 47.8333 30.0775C46.8529 32.3738 43.2904 33.8205 40.9405 33.6237" stroke="#333333" stroke-width="2" stroke-linecap="round" stroke-linejoin="round"/>
<path d="M31.875 20.5703C34.3524 21.6496 38.9639 28.2794 39.9673 30.894C42.0884 36.4052 36.3983 36.8448 33.3588 38.9017" stroke="#333333" stroke-width="2" stroke-linecap="round" stroke-linejoin="round"/>
<path d="M10.0667 61.4013C14.3808 61.585 18.8584 60.3056 23.0287 59.1804C26.1732 58.3441 29.1612 57.0001 31.876 55.2012C31.876 55.2012 37.8504 66.5287 37.1346 68.2969C36.0986 70.8622 28.5783 72.8502 26.4865 73.3718C22.2149 74.4347 17.1752 75.6353 12.0636 75.6353C11.0308 71.0262 9.84441 66.0301 8.86719 61.4505C9.30514 61.2635 9.46202 61.4669 10.0667 61.4013Z" stroke="#333333" stroke-width="2" stroke-linecap="round" stroke-linejoin="round"/>
<path d="M44.618 33.1172C47.8536 37.5032 44.5003 39.3304 40.696 42.214C38.7154 43.7165 33.7215 46.5147 32.3945 42.998" stroke="#333333" stroke-width="2" stroke-linecap="round" stroke-linejoin="round"/>
<path d="M10.0656 61.4026C10.0656 61.4026 6.45418 52.1943 6.18945 49.0352" stroke="#333333" stroke-width="2" stroke-linecap="round" stroke-linejoin="round"/>
<path d="M37.9999 44.4297C36.6926 49.0224 30.741 53.9792 25.9922 53.0377" stroke="#333333" stroke-width="2" stroke-linecap="round" stroke-linejoin="round"/>
<path d="M29.668 52.791L30.8936 55.4974" stroke="#333333" stroke-width="2" stroke-linecap="round" stroke-linejoin="round"/>
<path d="M12.27 75.1777C9.54756 81.6764 7.98858 88.5195 14.1787 94.3456C10.1064 93.9553 10.064 104.843 11.7994 107.907" stroke="#333333" stroke-width="2" stroke-linecap="round" stroke-linejoin="round"/>
<path d="M37.1328 68.2967C39.5612 67.9851 43.1301 70.2388 45.1074 71.9381C51.0133 77.0064 52.9089 83.3476 55.9484 90.3941C60.9979 102.092 65.3938 114.67 76.8655 121.424C81.5947 124.213 86.5429 124.465 91.8996 123.635C98.6748 122.586 103.943 120.886 109.807 117.73C116.196 114.289 121.331 108.932 126.847 104.215C131.505 100.229 135.914 95.6593 140.401 91.4209C144.751 87.3137 149.016 83.3312 151.977 78.1939" stroke="#333333" stroke-width="2" stroke-linecap="round" stroke-linejoin="round"/>
<path d="M35.5508 10.08C42.4926 9.26317 51.2745 10.1686 55.4416 10.3621C59.0171 10.5294 62.6515 10.8903 66.2466 10.7328C67.8611 10.6607 70.9006 9.74869 72.1655 12.0811C75.8063 18.793 58.5171 18.6191 56.6182 18.793C52.3498 19.1866 42.2377 18.9439 42.8195 18.8455" stroke="#333333" stroke-width="2" stroke-linecap="round" stroke-linejoin="round"/>
<path d="M62.5536 18.4473C62.5275 20.9043 63.0765 28.0328 64.5636 34.0853" stroke="#333333" stroke-width="2" stroke-linecap="round" stroke-linejoin="round"/>
<path d="M188.709 71.1776C188.709 68.0284 188.611 63.6817 188.464 60.6112C188.114 53.3941 188.363 46.177 188.137 38.9599C190.147 38.5794 193.367 38.4187 194.834 38.2743C197.37 38.0283 199.88 37.9856 200.959 35.2071C201.897 32.7959 201.178 29.6794 198.998 28.1901C195.844 26.0348 191.317 27.6029 187.441 28.2393C186.872 22.8691 185.758 17.2595 183.068 13.1491C180.558 9.29448 173.191 7.53285 168.818 7.98556C163.589 8.52356 159.36 10.0129 154.765 12.4766C146.388 16.9544 138.489 23.4793 131.887 30.3651C134.554 31.323 152.189 34.1179 152.189 34.1179C152.144 36.5127 152.189 39.9014 152.189 42.6702C152.189 47.7221 153.17 71.2104 153.17 77.4073" stroke="#333333" stroke-width="2" stroke-linecap="round" stroke-linejoin="round"/>
<path d="M163.699 41.9833C167.428 42.2163 170.157 40.038 170.684 38.5684" stroke="#333333" stroke-width="2" stroke-linecap="round" stroke-linejoin="round"/>
<path d="M163.221 22.5391L162.73 24.7501" stroke="#333333" stroke-width="2" stroke-linecap="round" stroke-linejoin="round"/>
<path d="M170.255 23.9863L169.66 25.7611" stroke="#333333" stroke-width="2" stroke-linecap="round" stroke-linejoin="round"/>
<path d="M152.684 77.3747C158.168 80.3862 164.812 80.5502 171.061 78.9166C174.696 77.9652 177.836 76.0724 181.477 74.6946C183.847 73.799 189.253 70.0855 191.096 71.4698C193.844 73.5366 193.648 77.3747 193.71 84.2637C197.786 88.7974 201.27 93.7378 205.555 98.1041C208.996 101.611 210.866 105.649 213.435 109.815C214.32 111.249 216.023 114.224 216.396 115.501" stroke="#333333" stroke-width="2" stroke-linecap="round" stroke-linejoin="round"/>
<path d="M153.418 83.0469C153.228 85.9173 154.62 91.75 157.215 93.3771C161.654 96.1623 167.821 85.9042 170.102 83.1158C170.2 87.0523 173.857 94.6926 176.603 97.4285C178.368 99.1902 179.793 98.4848 181.763 97.0775C183.505 95.8342 190.604 88.686 190.604 88.686" stroke="#333333" stroke-width="2" stroke-linecap="round" stroke-linejoin="round"/>
<path d="M169.345 96.0742C169.345 105.174 167.874 115.012 165.91 123.807C166.005 121.183 163.204 117.702 160.459 118.464C155.955 119.717 154.615 128.22 153.187 131.73C150.968 128.551 145.088 128.551 141.656 139.377" stroke="#333333" stroke-width="2" stroke-linecap="round" stroke-linejoin="round"/>
<path d="M188.707 125.017C188.707 125.017 198.022 123.003 205.049 123.439" stroke="#333333" stroke-width="2" stroke-linecap="round" stroke-linejoin="round"/>
<path d="M199.49 119.695C200.572 122.461 201.294 125.016 201.203 128.057" stroke="#333333" stroke-width="2" stroke-linecap="round" stroke-linejoin="round"/>
<path d="M195.566 118.465C197.772 123.602 198.243 129.701 198.508 135.195" stroke="#333333" stroke-width="2" stroke-linecap="round" stroke-linejoin="round"/>
<path d="M170.326 117.727L172.042 117.973" stroke="#333333" stroke-width="2" stroke-linecap="round" stroke-linejoin="round"/>
<path d="M158.072 128.057C158.288 128.255 158.531 128.422 158.795 128.552" stroke="#333333" stroke-width="2" stroke-linecap="round" stroke-linejoin="round"/>
<path d="M188.243 46.1646C190.115 43.9381 191.456 41.3129 192.165 38.4883C190.786 38.5998 189.26 38.7442 188.119 38.9607C188.211 41.3587 188.234 43.7633 188.243 46.1646Z" fill="#333333"/>
<path d="M193.044 27.218C192.969 25.8599 192.851 24.5149 192.717 23.1929C192.338 19.5122 191.737 15.5526 189.23 12.6658C189.116 12.5313 188.992 12.4001 188.867 12.2721C188.359 11.3419 187.64 10.5442 186.769 9.94299C186.135 9.48906 185.417 9.16797 184.656 8.99888C183.896 8.8298 183.11 8.81618 182.344 8.95884C181.89 4.43505 177.01 0.550952 172.585 0.977415C169.83 1.24314 167.356 2.68655 165.025 4.04795C162.368 5.59634 159.309 7.22019 156.201 6.16059C155.243 5.83254 154.599 7.14473 155.25 7.80083C161.394 14.1847 171.039 16.3301 179.311 13.4761C178.672 16.7382 178.8 20.105 179.684 23.3089C180.569 26.5128 182.185 29.4654 184.406 31.9321C184.512 32.0384 184.641 32.1189 184.783 32.1673C184.925 32.2158 185.076 32.2309 185.225 32.2116C185.374 32.1923 185.516 32.139 185.641 32.0559C185.766 31.9727 185.87 31.8619 185.946 31.732C186.544 30.5871 187.083 29.4094 187.58 28.212C189.315 27.9233 191.208 27.4444 193.044 27.218Z" fill="#333333"/>
<path d="M191.398 33.3631C192.595 33.0351 193.801 32.625 195.075 32.625" stroke="#333333" stroke-width="2" stroke-linecap="round" stroke-linejoin="round"/>
<path d="M67.205 30.7402H62.0933C60.8702 30.7411 59.6974 31.2289 58.8323 32.0967C57.9671 32.9645 57.4802 34.1413 57.4785 35.369V35.8086C57.4794 37.0363 57.9654 38.2134 58.83 39.0818C59.6945 39.9502 60.867 40.4389 62.0901 40.4406H62.9889C62.9889 41.0016 62.9889 41.6905 62.9889 42.4811C62.9398 50.7906 62.8973 59.7857 63.0085 61.3439C63.0357 61.7161 63.202 62.0642 63.4742 62.3185C63.7463 62.5728 64.1041 62.7145 64.4759 62.7151H64.5838C64.7765 62.701 64.9646 62.6489 65.1373 62.5618C65.3099 62.4746 65.4638 62.3542 65.5901 62.2074C65.7163 62.0605 65.8125 61.8901 65.8732 61.7059C65.9338 61.5218 65.9577 61.3274 65.9434 61.1339C65.9434 60.9994 65.9238 60.7829 65.9173 60.5041H68.643C69.0331 60.5041 69.4072 60.3486 69.683 60.0717C69.9588 59.7949 70.1137 59.4194 70.1137 59.0279C70.1137 58.6364 69.9588 58.2609 69.683 57.984C69.4072 57.7072 69.0331 57.5517 68.643 57.5517H67.6625C68.0526 57.5517 68.4267 57.3961 68.7025 57.1193C68.9783 56.8424 69.1333 56.4669 69.1333 56.0754C69.1333 55.6839 68.9783 55.3084 68.7025 55.0316C68.4267 54.7547 68.0526 54.5992 67.6625 54.5992H65.8813C65.8813 50.5511 65.9107 45.5943 65.9303 42.5008C65.9303 41.7069 65.9303 41.0114 65.9303 40.4439H67.2017C68.4251 40.4422 69.5979 39.9536 70.463 39.0853C71.328 38.217 71.8148 37.0398 71.8165 35.8119V35.3723C71.8157 34.1446 71.3296 32.9674 70.4651 32.0991C69.6005 31.2307 68.4281 30.742 67.205 30.7402ZM68.8783 35.8086C68.8775 36.2538 68.7009 36.6805 68.3873 36.9953C68.0736 37.3101 67.6485 37.4873 67.205 37.4882H62.0933C61.6501 37.4873 61.2253 37.31 60.9122 36.9951C60.5991 36.6802 60.4232 36.2535 60.4232 35.8086V35.369C60.4232 34.9244 60.5992 34.498 60.9124 34.1837C61.2256 33.8693 61.6504 33.6927 62.0933 33.6927H67.205C67.6482 33.6927 68.0733 33.8692 68.3871 34.1835C68.7008 34.4977 68.8775 34.9241 68.8783 35.369V35.8086Z" fill="#FFE945"/>
<path d="M64.5646 34.0749C65.8392 29.1542 66.7903 24.6041 66.908 20.1591C66.9537 18.299 67.7447 11.1279 66.3687 9.7632C65.1333 8.53958 64.2803 9.36626 63.7148 10.6653" stroke="#333333" stroke-width="2" stroke-linecap="round" stroke-linejoin="round"/>
</svg>
