<svg width="32" height="32" viewBox="0 0 32 32" fill="none" xmlns="http://www.w3.org/2000/svg">
<path d="M16.0007 8.89551C18.3149 8.89551 18.5887 8.90446 19.5028 8.94608C20.3477 8.98461 20.8067 9.12566 21.1122 9.24435C21.5167 9.40157 21.8054 9.58941 22.1088 9.89249C22.4122 10.1959 22.6001 10.4846 22.757 10.8891C22.8756 11.1946 23.0167 11.6536 23.0552 12.4985C23.0968 13.4122 23.1058 13.6864 23.1058 16.0006C23.1058 18.3149 23.0968 18.5887 23.0552 19.5028C23.0167 20.3477 22.8756 20.8067 22.757 21.1122C22.5997 21.5167 22.4119 21.8054 22.1088 22.1088C21.8054 22.4122 21.5167 22.6001 21.1122 22.7569C20.8067 22.8756 20.3477 23.0167 19.5028 23.0552C18.5891 23.0968 18.3149 23.1058 16.0007 23.1058C13.6864 23.1058 13.4122 23.0968 12.4985 23.0552C11.6536 23.0167 11.1946 22.8756 10.8891 22.7569C10.4846 22.5997 10.1959 22.4119 9.8925 22.1088C9.58907 21.8054 9.40123 21.5167 9.24435 21.1122C9.12566 20.8067 8.98461 20.3477 8.94608 19.5028C8.90446 18.5891 8.89551 18.3149 8.89551 16.0006C8.89551 13.6864 8.90446 13.4126 8.94608 12.4985C8.98461 11.6536 9.12566 11.1946 9.24435 10.8891C9.40157 10.4846 9.58941 10.1959 9.8925 9.89249C10.1959 9.58907 10.4846 9.40123 10.8891 9.24435C11.1946 9.12566 11.6536 8.98461 12.4985 8.94608C13.4126 8.90446 13.6864 8.89551 16.0007 8.89551ZM16.0007 7.33398C13.6468 7.33398 13.3517 7.34396 12.4273 7.38628C11.5049 7.42825 10.875 7.5748 10.3236 7.78913C9.75351 8.01068 9.27015 8.30689 8.78852 8.78886C8.30689 9.2705 8.01034 9.75385 7.78913 10.3236C7.5748 10.875 7.42825 11.5049 7.38628 12.4273C7.34396 13.3517 7.33398 13.6468 7.33398 16.0006C7.33398 18.3545 7.34396 18.6496 7.38628 19.574C7.42825 20.4964 7.5748 21.1263 7.78913 21.6777C8.01068 22.2478 8.30689 22.7311 8.78886 23.2128C9.27084 23.6948 9.75385 23.991 10.3239 24.2125C10.875 24.4268 11.5053 24.5734 12.4276 24.6154C13.352 24.6577 13.6472 24.6677 16.001 24.6677C18.3548 24.6677 18.65 24.6577 19.5744 24.6154C20.4967 24.5734 21.127 24.4268 21.6781 24.2125C22.2481 23.991 22.7315 23.6948 23.2131 23.2128C23.6951 22.7308 23.9913 22.2478 24.2129 21.6777C24.4272 21.1266 24.5737 20.4964 24.6157 19.574C24.658 18.6496 24.668 18.3545 24.668 16.0006C24.668 13.6468 24.658 13.3517 24.6157 12.4273C24.5737 11.5049 24.4272 10.8747 24.2129 10.3236C23.9913 9.75351 23.6951 9.27015 23.2131 8.78852C22.7311 8.30654 22.2481 8.01034 21.6781 7.78878C21.1263 7.5748 20.4964 7.42825 19.574 7.38628C18.6496 7.34396 18.3545 7.33398 16.0007 7.33398Z" fill="white"/>
<path d="M15.9991 11.5488C13.5411 11.5488 11.5488 13.5414 11.5488 15.9991C11.5488 18.4568 13.5414 20.4494 15.9991 20.4494C18.4568 20.4494 20.4494 18.4568 20.4494 15.9991C20.4494 13.5414 18.4572 11.5488 15.9991 11.5488ZM15.9991 18.8879C14.4035 18.8879 13.1104 17.5944 13.1104 15.9991C13.1104 14.4035 14.4039 13.1104 15.9991 13.1104C17.5944 13.1104 18.8879 14.4039 18.8879 15.9991C18.8879 17.5947 17.5947 18.8879 15.9991 18.8879Z" fill="white"/>
<path d="M20.6259 12.414C21.2003 12.414 21.6659 11.9483 21.6659 11.374C21.6659 10.7996 21.2003 10.334 20.6259 10.334C20.0516 10.334 19.5859 10.7996 19.5859 11.374C19.5859 11.9483 20.0516 12.414 20.6259 12.414Z" fill="white"/>
</svg>
