<svg id="圖層_1" data-name="圖層 1" xmlns="http://www.w3.org/2000/svg" xmlns:xlink="http://www.w3.org/1999/xlink" viewBox="0 0 402.08 75.65"><defs><style>.cls-1{fill:url(#未命名的渐变_43);}.cls-2{fill:url(#未命名的渐变_43-2);}.cls-3{fill:url(#未命名的渐变_43-3);}.cls-4{fill:url(#未命名的渐变_43-4);}.cls-5{fill:#606060;}</style><linearGradient id="未命名的渐变_43" x1="6.84" y1="-0.73" x2="73.68" y2="85.07" gradientUnits="userSpaceOnUse"><stop offset="0" stop-color="#63e5ba"/><stop offset="1" stop-color="#00e9c5"/></linearGradient><linearGradient id="未命名的渐变_43-2" x1="7.98" y1="-1.62" x2="74.82" y2="84.17" xlink:href="#未命名的渐变_43"/><linearGradient id="未命名的渐变_43-3" x1="28.04" y1="-17.25" x2="94.88" y2="68.55" xlink:href="#未命名的渐变_43"/><linearGradient id="未命名的渐变_43-4" x1="-13.2" y1="14.88" x2="53.64" y2="100.68" xlink:href="#未命名的渐变_43"/></defs><path class="cls-1" d="M4,26.76H15.48a4.53,4.53,0,0,1,4.38,5.71l-1.34,4.92a3.89,3.89,0,0,0,2.83,4.81h0a4.12,4.12,0,0,0,4.94-2.88L35.6,5.22a4.18,4.18,0,0,0-2.77-5h0A3.84,3.84,0,0,0,28,2.84L24.51,15.46a4.54,4.54,0,0,1-4.38,3.33H4a4,4,0,0,0-4,4H0A4,4,0,0,0,4,26.76Z"/><path class="cls-2" d="M71.64,48.92H60a4.52,4.52,0,0,1-4.38-5.69l1.18-4.38a4.1,4.1,0,0,0-2.67-5,4,4,0,0,0-5,2.79L40,70.47a4.09,4.09,0,0,0,2.67,5,4,4,0,0,0,5-2.79l3.35-12.44a4.53,4.53,0,0,1,4.38-3.35H71.64a4,4,0,0,0,4-4h0A4,4,0,0,0,71.64,48.92Z"/><path class="cls-3" d="M71.64,18.79h-3.5a4.52,4.52,0,0,1-4.38-5.69l2.12-7.88a4.1,4.1,0,0,0-2.67-5,4,4,0,0,0-5,2.79L54.84,15.44a4.53,4.53,0,0,1-4.39,3.35H41.83a4,4,0,0,0-4,4h0a4,4,0,0,0,4,4H71.64a4,4,0,0,0,4-4h0A4,4,0,0,0,71.64,18.79Z"/><path class="cls-4" d="M33.82,48.92H4a4,4,0,0,0-4,4H0a4,4,0,0,0,4,4H7.51a4.52,4.52,0,0,1,4.38,5.69L9.77,70.47a4.09,4.09,0,0,0,2.67,5,4,4,0,0,0,5-2.79l3.35-12.44a4.53,4.53,0,0,1,4.38-3.35h8.63a4,4,0,0,0,4-4h0A4,4,0,0,0,33.82,48.92Z"/><path class="cls-5" d="M97.15,60.79V5.92h9v22a15.82,15.82,0,0,1,13-6.43c10.58,0,18.73,8.62,18.73,20.14,0,11.29-8.15,20.15-18.73,20.15-5.33,0-10.19-2.2-13-6.19v5.25ZM117.3,29.67a11.63,11.63,0,0,0-11.53,11.91,11.53,11.53,0,1,0,23,0A11.63,11.63,0,0,0,117.3,29.67Z"/><path class="cls-5" d="M172.33,22.38h9.09V60.79h-9.09v-5.1a13.34,13.34,0,0,1-11.68,6c-9.18,0-14.66-6.19-14.66-16.23V22.38h9.09v21.4c0,6,3,9.56,8.31,9.56s8.94-4.15,8.94-10.74Z"/><path class="cls-5" d="M190.67,48.25c3.84,3.21,8.94,5.48,13.87,5.48,3.53.08,6.43-1.17,6.43-4.23,0-7-20.61-1.72-20.61-15.68,0-7.52,6.35-12.38,15.28-12.38a26.34,26.34,0,0,1,12.46,3.37v9.48a20,20,0,0,0-12.77-4.93c-3.69,0-6.12,1.41-6.12,3.68,0,6.58,20.78,1.8,20.78,15.91,0,8.39-7,12.78-15.05,12.78-5.65,0-10.51-1.26-14.27-3.69Z"/><path class="cls-5" d="M232.61,16.74a5.61,5.61,0,1,1,5.64-5.57A5.59,5.59,0,0,1,232.61,16.74Zm-4.47,44.05V22.38h9.09V60.79Z"/><path class="cls-5" d="M257.61,60.79h-9.09V22.38h9.09v5.09a13.4,13.4,0,0,1,11.76-6c9.41,0,14.89,6.19,14.89,16.22V60.79h-9.09V39.39c0-6-3-9.56-8.54-9.56-5.41,0-9,4.15-9,10.73Z"/><path class="cls-5" d="M328.08,57.65a27.82,27.82,0,0,1-14.81,4.08c-12.7,0-20.7-8.62-20.7-20.22s8-20.07,19.29-20.07,18.42,8.46,18.42,19.83a13.56,13.56,0,0,1-.24,3.14H301.59c.7,5.33,5.09,9.56,12.3,9.56,4.86,0,9.57-1.73,14.19-5.17Zm-6.66-20a9.39,9.39,0,0,0-9.72-8.85,10.32,10.32,0,0,0-10.11,8.85Z"/><path class="cls-5" d="M336.94,48.25c3.84,3.21,8.94,5.48,13.87,5.48,3.53.08,6.43-1.17,6.43-4.23,0-7-20.61-1.72-20.61-15.68,0-7.52,6.35-12.38,15.28-12.38a26.34,26.34,0,0,1,12.46,3.37v9.48a20,20,0,0,0-12.77-4.93c-3.69,0-6.12,1.41-6.12,3.68,0,6.58,20.78,1.8,20.78,15.91,0,8.39-7,12.78-15.05,12.78-5.65,0-10.51-1.26-14.27-3.69Z"/><path class="cls-5" d="M372.76,48.25c3.84,3.21,8.94,5.48,13.88,5.48,3.52.08,6.42-1.17,6.42-4.23,0-7-20.61-1.72-20.61-15.68,0-7.52,6.35-12.38,15.28-12.38a26.41,26.41,0,0,1,12.47,3.37v9.48a20.09,20.09,0,0,0-12.78-4.93c-3.68,0-6.11,1.41-6.11,3.68,0,6.58,20.77,1.8,20.77,15.91,0,8.39-7,12.78-15.05,12.78-5.65,0-10.5-1.26-14.27-3.69Z"/></svg>