<svg id="图层_1" data-name="图层 1" xmlns="http://www.w3.org/2000/svg" viewBox="0 0 464.29 95.06"><defs><style>.cls-1{fill:#fff;}</style></defs><path class="cls-1" d="M11.07,33.63H24.6a5.34,5.34,0,0,1,5.17,6.73l-1.59,5.8a4.61,4.61,0,0,0,3.35,5.68h0a4.87,4.87,0,0,0,5.82-3.4l11-40.22a4.93,4.93,0,0,0-3.27-5.94h0a4.54,4.54,0,0,0-5.75,3.14L35.25,20.3a5.36,5.36,0,0,1-5.17,3.93h-19a4.71,4.71,0,0,0-4.72,4.7h0A4.71,4.71,0,0,0,11.07,33.63Z"/><path class="cls-1" d="M90.84,59.77H77.14A5.34,5.34,0,0,1,72,53.06l1.39-5.17A4.83,4.83,0,0,0,70.22,42a4.73,4.73,0,0,0-5.93,3.28L53.56,85.17a4.83,4.83,0,0,0,3.14,5.91,4.72,4.72,0,0,0,5.92-3.29l3.95-14.67a5.35,5.35,0,0,1,5.17-4h19.1a4.72,4.72,0,0,0,4.72-4.7h0A4.71,4.71,0,0,0,90.84,59.77Z"/><path class="cls-1" d="M90.84,24.23H86.7a5.33,5.33,0,0,1-5.17-6.71L84,8.23a4.83,4.83,0,0,0-3.14-5.91A4.72,4.72,0,0,0,75,5.6L71,20.28a5.35,5.35,0,0,1-5.17,3.95H55.67A4.71,4.71,0,0,0,51,28.93h0a4.71,4.71,0,0,0,4.72,4.7H90.84a4.71,4.71,0,0,0,4.72-4.7h0A4.71,4.71,0,0,0,90.84,24.23Z"/><path class="cls-1" d="M46.23,59.77H11.07a4.71,4.71,0,0,0-4.72,4.7h0a4.71,4.71,0,0,0,4.72,4.7H15.2a5.33,5.33,0,0,1,5.17,6.71l-2.5,9.29A4.82,4.82,0,0,0,21,91.08a4.73,4.73,0,0,0,5.92-3.29l3.95-14.67a5.35,5.35,0,0,1,5.17-4H46.23A4.71,4.71,0,0,0,51,64.47h0A4.71,4.71,0,0,0,46.23,59.77Z"/><path class="cls-1" d="M146.75,24.25h-6.23a5.1,5.1,0,0,1-5.1-5.1V11.76a1.7,1.7,0,0,0-1.7-1.7h-5.59a1.7,1.7,0,0,0-1.7,1.7V24.25h-6.87a1.7,1.7,0,0,0-1.7,1.7v5.59a1.7,1.7,0,0,0,1.7,1.7h6.87V53.68a15.49,15.49,0,0,0,15.49,15.49h4.83a1.7,1.7,0,0,0,1.7-1.7v-5.6a1.7,1.7,0,0,0-1.7-1.69h-4.83a6.5,6.5,0,0,1-6.5-6.5V33.24h11.33a1.7,1.7,0,0,0,1.7-1.7V26A1.7,1.7,0,0,0,146.75,24.25Z"/><path class="cls-1" d="M322.55,24.25h-6.23a5.1,5.1,0,0,1-5.09-5.1V11.76a1.7,1.7,0,0,0-1.7-1.7h-5.6a1.7,1.7,0,0,0-1.7,1.7V24.25h-6.87a1.7,1.7,0,0,0-1.69,1.7v5.59a1.7,1.7,0,0,0,1.69,1.7h6.87V53.68a15.5,15.5,0,0,0,15.49,15.49h4.83a1.7,1.7,0,0,0,1.7-1.7v-5.6a1.7,1.7,0,0,0-1.7-1.69h-4.83a6.49,6.49,0,0,1-6.49-6.5V33.24h11.32a1.7,1.7,0,0,0,1.7-1.7V26A1.7,1.7,0,0,0,322.55,24.25Z"/><path class="cls-1" d="M174,24.23h-2.06A18.78,18.78,0,0,0,153.15,43v7.42a18.79,18.79,0,0,0,18.76,18.76H174a18.78,18.78,0,0,0,18.76-18.76V43A18.77,18.77,0,0,0,174,24.23Zm9.77,26.18A9.78,9.78,0,0,1,174,60.18h-2.06a9.78,9.78,0,0,1-9.77-9.77V43a9.78,9.78,0,0,1,9.77-9.77H174A9.78,9.78,0,0,1,183.74,43Z"/><path class="cls-1" d="M220.61,24.23h-2.07A18.77,18.77,0,0,0,199.79,43v7.42a18.78,18.78,0,0,0,18.75,18.76h2.07a18.72,18.72,0,0,0,9.72-2.72v6.07a9.77,9.77,0,0,1-9.76,9.77H218.5A9.79,9.79,0,0,1,208.84,74a1.69,1.69,0,0,0-1.67-1.46h-5.64a1.71,1.71,0,0,0-1.69,1.89A18.79,18.79,0,0,0,218.5,91.28h2.06a18.76,18.76,0,0,0,18.76-18.76V51.61c0-.39.05-.8.05-1.2V43A18.78,18.78,0,0,0,220.61,24.23Zm9.76,22.5h0v4.53a9.78,9.78,0,0,1-9.72,8.92h-2.07a9.78,9.78,0,0,1-9.76-9.77V43a9.78,9.78,0,0,1,9.76-9.77h2.07A9.78,9.78,0,0,1,230.37,43Z"/><path class="cls-1" d="M405.27,24.29h-2.15a19.59,19.59,0,0,0-19.59,19.59v5.7a19.59,19.59,0,0,0,19.59,19.59h4.66a19.52,19.52,0,0,0,16.48-9,1.79,1.79,0,0,0-.68-2.57l-5.24-2.66a1.78,1.78,0,0,0-2.25.54,10.14,10.14,0,0,1-8.31,4.3h-4.66a10.21,10.21,0,0,1-10-8.36H420a4.87,4.87,0,0,0,4.87-4.87V43.88A19.59,19.59,0,0,0,405.27,24.29ZM412.87,42H395.52a1.78,1.78,0,0,1-1.61-2.54,10.21,10.21,0,0,1,9.21-5.81h2.15a10.21,10.21,0,0,1,9.21,5.81A1.78,1.78,0,0,1,412.87,42Z"/><path class="cls-1" d="M355.57,28.54H353.5a18.65,18.65,0,0,0-3.61.35,5.12,5.12,0,0,1-6.15-5V11.81a1.7,1.7,0,0,0-1.7-1.7h-5.6a1.7,1.7,0,0,0-1.7,1.7V67.47a1.7,1.7,0,0,0,1.7,1.7H342a1.7,1.7,0,0,0,1.7-1.7V47.29a9.76,9.76,0,0,1,9.76-9.76h2.07a9.76,9.76,0,0,1,9.76,9.76V67.47a1.7,1.7,0,0,0,1.7,1.7h5.59a1.7,1.7,0,0,0,1.7-1.7V47.29A18.75,18.75,0,0,0,355.57,28.54Z"/><path class="cls-1" d="M458.19,24.23H452a17.92,17.92,0,0,0-17.92,17.93V67.43a1.7,1.7,0,0,0,1.69,1.7h5.6a1.7,1.7,0,0,0,1.7-1.7V42.16A8.93,8.93,0,0,1,452,33.22h6.2a1.7,1.7,0,0,0,1.7-1.7V25.93A1.7,1.7,0,0,0,458.19,24.23Z"/><path class="cls-1" d="M284.22,24.23h-5.6a1.7,1.7,0,0,0-1.7,1.7v3.66c-2.65-3.22-5.95-5.36-9.76-5.36h-2.07A18.77,18.77,0,0,0,246.34,43v7.42a18.78,18.78,0,0,0,18.75,18.76h2.07c3.81,0,7.11-2.23,9.76-5.55v3.91a1.7,1.7,0,0,0,1.7,1.7h5.6a1.7,1.7,0,0,0,1.69-1.7V25.93A1.7,1.7,0,0,0,284.22,24.23Zm-17.06,36h-2.07a9.78,9.78,0,0,1-9.76-9.77V43a9.78,9.78,0,0,1,9.76-9.77h2.07A9.78,9.78,0,0,1,276.92,43v7.42A9.78,9.78,0,0,1,267.16,60.18Z"/></svg>