<svg id="图层_1" data-name="图层 1" xmlns="http://www.w3.org/2000/svg" xmlns:xlink="http://www.w3.org/1999/xlink" viewBox="0 0 283.46 283.46"><defs><style>.cls-1{fill:url(#未命名的渐变_43);}.cls-2{fill:url(#未命名的渐变_43-2);}.cls-3{fill:url(#未命名的渐变_43-3);}.cls-4{fill:url(#未命名的渐变_43-4);}</style><linearGradient id="未命名的渐变_43" y1="79.34" x2="133.93" y2="79.34" gradientUnits="userSpaceOnUse"><stop offset="0" stop-color="#63e5ba"/><stop offset="1" stop-color="#00e9c5"/></linearGradient><linearGradient id="未命名的渐变_43-2" x1="149.46" y1="204.87" x2="283.46" y2="204.87" xlink:href="#未命名的渐变_43"/><linearGradient id="未命名的渐变_43-3" x1="141.73" y1="50.28" x2="283.46" y2="50.28" xlink:href="#未命名的渐变_43"/><linearGradient id="未命名的渐变_43-4" y1="233.45" x2="141.73" y2="233.45" xlink:href="#未命名的渐变_43"/></defs><path class="cls-1" d="M15,100.35H58a17,17,0,0,1,16.41,21.38l-5,18.42a14.62,14.62,0,0,0,10.62,18h0a15.43,15.43,0,0,0,18.49-10.8L133.4,19.61A15.66,15.66,0,0,0,123,.73h0a14.4,14.4,0,0,0-18.27,10L91.83,58A17,17,0,0,1,75.42,70.47H15A15,15,0,0,0,0,85.41H0A15,15,0,0,0,15,100.35Z"/><path class="cls-2" d="M268.46,183.38H225a17,17,0,0,1-16.43-21.32l4.42-16.42c2.12-7.9-2.14-16.42-10-18.78a15,15,0,0,0-18.82,10.44L150,264.11c-2.12,7.9,2.14,16.42,10,18.77a15,15,0,0,0,18.82-10.44l12.54-46.63a17,17,0,0,1,16.43-12.55h60.67a15,15,0,0,0,15-14.94h0A15,15,0,0,0,268.46,183.38Z"/><path class="cls-3" d="M268.46,70.47H255.33A17,17,0,0,1,238.9,49.15l7.95-29.53c2.12-7.9-2.14-16.42-10-18.77A15,15,0,0,0,218,11.29L205.49,57.92a17,17,0,0,1-16.43,12.55H156.73a15,15,0,0,0-15,14.94h0a15,15,0,0,0,15,14.94H268.46a15,15,0,0,0,15-14.94h0A15,15,0,0,0,268.46,70.47Z"/><path class="cls-4" d="M126.73,183.38H15A15,15,0,0,0,0,198.32H0a15,15,0,0,0,15,14.94H28.13a17,17,0,0,1,16.43,21.32l-7.94,29.53c-2.13,7.9,2.13,16.42,10,18.77a15,15,0,0,0,18.81-10.44L78,225.81a17,17,0,0,1,16.43-12.55h32.32a15,15,0,0,0,15-14.94h0A15,15,0,0,0,126.73,183.38Z"/></svg>