<svg id="图层_1" data-name="图层 1" xmlns="http://www.w3.org/2000/svg" viewBox="0 0 457.1 92.54"><defs><style>.cls-1{fill:#00e9c5;}.cls-2{fill:#606060;}</style></defs><title>TogatherSVGlogo</title><path class="cls-1" d="M6.11,33.36H19.64a5.34,5.34,0,0,1,5.17,6.73l-1.59,5.79a4.6,4.6,0,0,0,3.34,5.68h0a4.85,4.85,0,0,0,5.82-3.4L43.37,8A4.93,4.93,0,0,0,40.1,2h0a4.53,4.53,0,0,0-5.75,3.13L30.29,20A5.36,5.36,0,0,1,25.12,24h-19a4.71,4.71,0,0,0-4.72,4.7h0A4.71,4.71,0,0,0,6.11,33.36Z"/><path class="cls-1" d="M85.88,59.49H72.18A5.33,5.33,0,0,1,67,52.78l1.39-5.17a4.83,4.83,0,0,0-3.15-5.91A4.73,4.73,0,0,0,59.33,45L48.59,84.9a4.84,4.84,0,0,0,3.15,5.9,4.72,4.72,0,0,0,5.92-3.28l4-14.68a5.35,5.35,0,0,1,5.17-4h19.1a4.71,4.71,0,0,0,4.72-4.7h0A4.72,4.72,0,0,0,85.88,59.49Z"/><path class="cls-1" d="M85.88,24H81.74a5.34,5.34,0,0,1-5.17-6.71L79.07,8a4.82,4.82,0,0,0-3.14-5.9A4.73,4.73,0,0,0,70,5.33L66.06,20A5.35,5.35,0,0,1,60.89,24H50.71A4.71,4.71,0,0,0,46,28.66h0a4.72,4.72,0,0,0,4.72,4.7H85.88a4.72,4.72,0,0,0,4.72-4.7h0A4.71,4.71,0,0,0,85.88,24Z"/><path class="cls-1" d="M41.27,59.49H6.11a4.71,4.71,0,0,0-4.72,4.7h0a4.71,4.71,0,0,0,4.72,4.7h4.13a5.34,5.34,0,0,1,5.17,6.71l-2.5,9.3a4.82,4.82,0,0,0,3.15,5.9A4.72,4.72,0,0,0,22,87.52l3.95-14.68a5.35,5.35,0,0,1,5.17-4H41.27A4.71,4.71,0,0,0,46,64.19h0A4.71,4.71,0,0,0,41.27,59.49Z"/><path class="cls-2" d="M141.79,24h-6.23a5.1,5.1,0,0,1-5.1-5.1V11.48a1.7,1.7,0,0,0-1.7-1.7h-5.59a1.7,1.7,0,0,0-1.7,1.7V24H114.6a1.7,1.7,0,0,0-1.7,1.7v5.6A1.7,1.7,0,0,0,114.6,33h6.87V53.41A15.48,15.48,0,0,0,137,68.89h4.83a1.7,1.7,0,0,0,1.7-1.7V61.6a1.7,1.7,0,0,0-1.7-1.7H137a6.5,6.5,0,0,1-6.5-6.49V33h11.33a1.7,1.7,0,0,0,1.7-1.69v-5.6A1.7,1.7,0,0,0,141.79,24Z"/><path class="cls-2" d="M317.59,24h-6.23a5.09,5.09,0,0,1-5.09-5.1V11.48a1.7,1.7,0,0,0-1.7-1.7H299a1.7,1.7,0,0,0-1.7,1.7V24H290.4a1.7,1.7,0,0,0-1.7,1.7v5.6A1.7,1.7,0,0,0,290.4,33h6.87V53.41a15.49,15.49,0,0,0,15.49,15.48h4.83a1.7,1.7,0,0,0,1.7-1.7V61.6a1.7,1.7,0,0,0-1.7-1.7h-4.83a6.49,6.49,0,0,1-6.49-6.49V33h11.32a1.7,1.7,0,0,0,1.7-1.69v-5.6A1.7,1.7,0,0,0,317.59,24Z"/><path class="cls-2" d="M169,24H167a18.78,18.78,0,0,0-18.76,18.75v7.43A18.78,18.78,0,0,0,167,68.89H169a18.78,18.78,0,0,0,18.76-18.75V42.71A18.78,18.78,0,0,0,169,24Zm9.77,26.18A9.78,9.78,0,0,1,169,59.9H167a9.78,9.78,0,0,1-9.77-9.76V42.71A9.78,9.78,0,0,1,167,33H169a9.78,9.78,0,0,1,9.77,9.76Z"/><path class="cls-2" d="M215.65,24h-2.07a18.77,18.77,0,0,0-18.75,18.75v7.43a18.77,18.77,0,0,0,18.75,18.75h2.07a18.63,18.63,0,0,0,9.72-2.72v6.08A9.76,9.76,0,0,1,215.6,82h-2.06a9.79,9.79,0,0,1-9.66-8.31,1.69,1.69,0,0,0-1.68-1.45h-5.63a1.7,1.7,0,0,0-1.69,1.89A18.78,18.78,0,0,0,213.54,91h2.06a18.75,18.75,0,0,0,18.76-18.75V51.34c0-.4,0-.8,0-1.2V42.71A18.77,18.77,0,0,0,215.65,24Zm9.76,22.49h0V51a9.77,9.77,0,0,1-9.72,8.92h-2.07a9.77,9.77,0,0,1-9.76-9.76V42.71A9.77,9.77,0,0,1,213.58,33h2.07a9.77,9.77,0,0,1,9.76,9.76Z"/><path class="cls-2" d="M400.31,24h-2.16A19.59,19.59,0,0,0,378.57,43.6v5.71a19.58,19.58,0,0,0,19.58,19.58h4.66a19.5,19.5,0,0,0,16.49-9,1.78,1.78,0,0,0-.68-2.56l-5.25-2.67a1.76,1.76,0,0,0-2.24.55,10.13,10.13,0,0,1-8.32,4.29h-4.66a10.22,10.22,0,0,1-10-8.35H415a4.87,4.87,0,0,0,4.87-4.87V43.6A19.59,19.59,0,0,0,400.31,24Zm7.6,17.75H390.55a1.78,1.78,0,0,1-1.6-2.54,10.2,10.2,0,0,1,9.2-5.82h2.16a10.22,10.22,0,0,1,9.21,5.82A1.78,1.78,0,0,1,407.91,41.76Z"/><path class="cls-2" d="M350.61,28.27h-2.08a19.44,19.44,0,0,0-3.6.34,5.12,5.12,0,0,1-6.16-5V11.54a1.7,1.7,0,0,0-1.7-1.7h-5.59a1.7,1.7,0,0,0-1.7,1.69V67.19a1.7,1.7,0,0,0,1.7,1.7h5.59a1.7,1.7,0,0,0,1.7-1.7V47a9.76,9.76,0,0,1,9.76-9.76h2.08A9.76,9.76,0,0,1,360.37,47V67.19a1.7,1.7,0,0,0,1.7,1.7h5.59a1.7,1.7,0,0,0,1.7-1.7V47A18.75,18.75,0,0,0,350.61,28.27Z"/><path class="cls-2" d="M453.23,24H447A17.92,17.92,0,0,0,429.1,41.88V67.16a1.7,1.7,0,0,0,1.7,1.7h5.6a1.7,1.7,0,0,0,1.7-1.7V41.88A8.93,8.93,0,0,1,447,33h6.2a1.7,1.7,0,0,0,1.7-1.7V25.66A1.7,1.7,0,0,0,453.23,24Z"/><path class="cls-2" d="M279.25,24h-5.59a1.7,1.7,0,0,0-1.7,1.7v3.66C269.31,26.1,266,24,262.2,24h-2.07a18.78,18.78,0,0,0-18.76,18.75v7.43a18.78,18.78,0,0,0,18.76,18.75h2.07c3.81,0,7.11-2.22,9.76-5.54v3.9a1.7,1.7,0,0,0,1.7,1.7h5.59a1.7,1.7,0,0,0,1.7-1.7V25.66A1.7,1.7,0,0,0,279.25,24ZM262.2,59.9h-2.07a9.77,9.77,0,0,1-9.76-9.76V42.71A9.77,9.77,0,0,1,260.13,33h2.07A9.77,9.77,0,0,1,272,42.71v7.43A9.77,9.77,0,0,1,262.2,59.9Z"/></svg>